<svg xmlns="http://www.w3.org/2000/svg"  viewBox="0 0 72 72" width="64px" height="64px"><path d="M63,19.645c-1.43,2.143-3.24,4.026-5.325,5.538c0.02,0.459,0.03,0.921,0.03,1.384C57.705,40.701,46.977,57,27.353,57	C21.328,57,13.476,54.884,11,52.195c0.836,0.1,1.686,0.15,2.546,0.15c4.999,0,9.6-1.711,13.249-4.58	c-4.668-0.086-8.608-3.18-9.966-7.43c2.124,0.334,4.818-0.184,4.818-0.184s-8.342-1.436-8.558-10.622	c2.412,1.402,4.832,1.338,4.832,1.338s-4.811-2.97-4.744-8.901c0.039-3.499,1.442-5.38,1.442-5.38	c9.115,11.255,21.989,11.178,21.989,11.178s-0.276-1.598-0.276-2.436c0-5.906,4.775-10.697,10.667-10.697	c3.068,0,5.84,1.3,7.786,3.379c2.432-0.482,4.716-1.372,6.776-2.597c-0.931,3.737-4.69,5.918-4.69,5.918S60.09,20.971,63,19.645z"/></svg>